M48
; DRILL file {KiCad 9.0.4} date 2025-10-19T13:19:20+0700
; FORMAT={-:-/ absolute / metric / decimal}
; #@! TF.CreationDate,2025-10-19T13:19:20+07:00
; #@! TF.GenerationSoftware,Kicad,Pcbnew,9.0.4
; #@! TF.FileFunction,NonPlated,1,2,NPTH
FMAT,2
METRIC
; #@! TA.AperFunction,NonPlated,NPTH,ComponentDrill
T1C0.650
; #@! TA.AperFunction,NonPlated,NPTH,ComponentDrill
T2C1.702
; #@! TA.AperFunction,NonPlated,NPTH,ComponentDrill
T3C3.000
; #@! TA.AperFunction,NonPlated,NPTH,ComponentDrill
T4C3.048
; #@! TA.AperFunction,NonPlated,NPTH,ComponentDrill
T5C3.200
; #@! TA.AperFunction,NonPlated,NPTH,ComponentDrill
T6C3.988
%
G90
G05
T1
X113.029Y-24.461
X118.809Y-24.461
T2
X34.131Y-52.07
X34.131Y-62.23
X48.101Y-66.675
X52.864Y-47.625
X58.261Y-66.675
X63.024Y-47.625
X67.151Y-66.675
X76.676Y-28.575
X76.676Y-47.625
X77.311Y-66.675
X86.201Y-66.675
X86.836Y-28.575
X86.836Y-47.625
X96.361Y-66.675
X100.489Y-47.625
X105.251Y-66.675
X105.251Y-85.725
X110.649Y-47.625
X115.411Y-66.675
X115.411Y-85.725
X143.351Y-85.725
X153.511Y-85.725
X181.451Y-66.675
X181.451Y-85.725
X186.214Y-47.625
X191.611Y-66.675
X191.611Y-85.725
X196.374Y-47.625
X200.501Y-66.675
X210.026Y-47.625
X210.026Y-28.575
X210.661Y-66.675
X219.551Y-66.675
X220.186Y-47.625
X220.186Y-28.575
X229.711Y-66.675
X233.839Y-47.625
X238.601Y-66.675
X243.999Y-47.625
X248.761Y-66.675
X262.738Y-52.07
X262.738Y-62.23
T3
X36.671Y-53.34
X39.211Y-59.69
X49.371Y-64.135
X54.134Y-45.085
X55.721Y-61.595
X60.484Y-42.545
X68.421Y-64.135
X74.771Y-61.595
X77.946Y-26.035
X77.946Y-45.085
X84.296Y-23.495
X84.296Y-42.545
X87.471Y-64.135
X93.821Y-61.595
X101.759Y-45.085
X106.521Y-64.135
X106.521Y-83.185
X108.109Y-42.545
X112.871Y-61.595
X112.871Y-80.645
X144.621Y-83.185
X150.971Y-80.645
X182.721Y-64.135
X182.721Y-83.185
X187.484Y-45.085
X189.071Y-61.595
X189.071Y-80.645
X193.834Y-42.545
X201.771Y-64.135
X208.121Y-61.595
X211.296Y-45.085
X211.296Y-26.035
X217.646Y-42.545
X217.646Y-23.495
X220.821Y-64.135
X227.171Y-61.595
X235.109Y-45.085
X239.871Y-64.135
X241.459Y-42.545
X246.221Y-61.595
X257.658Y-54.61
X260.198Y-60.96
T4
X41.116Y-45.212
X41.116Y-69.088
X98.393Y-78.74
X122.269Y-78.74
X136.493Y-78.74
X160.369Y-78.74
X174.593Y-78.74
X198.469Y-78.74
X255.753Y-45.212
X255.753Y-69.088
T5
X29.312Y-25.131
X29.312Y-90.131
X129.381Y-44.45
X167.481Y-44.45
X267.772Y-25.131
X267.772Y-90.131
T6
X25.876Y-45.212
X25.876Y-69.088
X34.131Y-57.15
X53.181Y-66.675
X57.944Y-47.625
X72.231Y-66.675
X81.756Y-28.575
X81.756Y-47.625
X91.281Y-66.675
X98.393Y-93.98
X105.569Y-47.625
X110.331Y-66.675
X110.331Y-85.725
X122.269Y-93.98
X136.493Y-93.98
X148.431Y-85.725
X160.369Y-93.98
X174.593Y-93.98
X186.531Y-66.675
X186.531Y-85.725
X191.294Y-47.625
X198.469Y-93.98
X205.581Y-66.675
X215.106Y-47.625
X215.106Y-28.575
X224.631Y-66.675
X238.919Y-47.625
X243.681Y-66.675
X262.738Y-57.15
X270.993Y-45.212
X270.993Y-69.088
M30
