M48
; DRILL file {KiCad 9.0.4} date 2025-10-19T13:19:20+0700
; FORMAT={-:-/ absolute / metric / decimal}
; #@! TF.CreationDate,2025-10-19T13:19:20+07:00
; #@! TF.GenerationSoftware,Kicad,Pcbnew,9.0.4
; #@! TF.FileFunction,Plated,1,2,PTH
FMAT,2
METRIC
; #@! TA.AperFunction,Plated,PTH,ViaDrill
T1C0.350
; #@! TA.AperFunction,Plated,PTH,ComponentDrill
T2C0.600
; #@! TA.AperFunction,Plated,PTH,ComponentDrill
T3C1.000
; #@! TA.AperFunction,Plated,PTH,ComponentDrill
T4C1.100
; #@! TA.AperFunction,Plated,PTH,ComponentDrill
T5C1.200
%
G90
G05
T1
X29.845Y-63.246
X31.559Y-54.451
X32.544Y-79.375
X33.528Y-49.276
X41.935Y-90.719
X44.704Y-71.247
X48.876Y-84.931
X49.4Y-51.8
X52.77Y-53.48
X53.213Y-75.184
X61.666Y-56.134
X62.611Y-90.719
X62.738Y-59.563
X63.881Y-71.12
X70.2Y-31.877
X72.263Y-74.972
X73.06Y-33.09
X73.36Y-51.14
X75.991Y-35.769
X77.0Y-36.957
X77.089Y-70.993
X79.311Y-55.848
X82.931Y-71.12
X84.861Y-90.694
X86.45Y-51.97
X91.313Y-75.057
X93.218Y-83.439
X93.472Y-81.788
X95.885Y-70.993
X97.07Y-51.81
X97.968Y-89.357
X99.5Y-56.94
X101.981Y-70.993
X104.064Y-87.89
X107.569Y-75.607
X110.727Y-55.848
X113.474Y-30.988
X115.062Y-38.227
X115.062Y-90.043
X116.014Y-76.041
X116.459Y-71.12
X118.491Y-30.988
X118.872Y-74.93
X123.088Y-87.198
X129.413Y-55.499
X131.826Y-66.929
X132.08Y-77.174
X141.224Y-87.386
X143.183Y-91.555
X147.161Y-66.675
X153.543Y-54.769
X153.923Y-91.82
X157.353Y-68.072
X178.096Y-70.993
X179.883Y-87.042
X181.991Y-91.555
X182.87Y-52.31
X186.436Y-75.057
X188.52Y-55.39
X192.405Y-70.866
X196.06Y-51.943
X197.104Y-71.12
X201.803Y-87.556
X202.895Y-91.161
X202.946Y-89.662
X205.486Y-74.972
X206.375Y-33.02
X206.675Y-52.025
X206.903Y-80.625
X211.02Y-71.555
X211.582Y-70.993
X212.725Y-55.922
X213.995Y-61.595
X216.281Y-71.12
X218.186Y-90.694
X219.725Y-51.956
X219.869Y-33.337
X224.536Y-74.845
X224.631Y-36.512
X230.49Y-51.85
X230.632Y-70.866
X235.1Y-56.557
X235.204Y-70.993
X239.954Y-90.719
X240.919Y-74.93
X243.4Y-51.956
X249.428Y-70.993
X261.442Y-90.694
X266.446Y-65.532
X267.208Y-39.116
X269.367Y-79.407
X270.764Y-59.69
T3
X145.931Y-41.825
X148.431Y-41.825
X150.931Y-41.825
T2
X111.599Y-20.511G85X111.599Y-21.111
G05
X111.599Y-24.441G85X111.599Y-25.541
G05
X120.239Y-20.511G85X120.239Y-21.111
G05
X120.239Y-24.441G85X120.239Y-25.541
G05
T4
X144.031Y-45.925G85X143.331Y-45.925
G05
X153.531Y-45.925G85X152.831Y-45.925
G05
T5
X124.261Y-60.912G85X123.261Y-60.912
G05
X124.281Y-62.912G85X123.281Y-62.912
G05
X127.561Y-61.912G85X126.561Y-61.912
G05
M30
