%TF.GenerationSoftware,KiCad,Pcbnew,9.0.4*%
%TF.CreationDate,2025-10-19T13:19:14+07:00*%
%TF.ProjectId,gekimax,67656b69-6d61-4782-9e6b-696361645f70,rev?*%
%TF.SameCoordinates,Original*%
%TF.FileFunction,Soldermask,Top*%
%TF.FilePolarity,Negative*%
%FSLAX46Y46*%
G04 Gerber Fmt 4.6, Leading zero omitted, Abs format (unit mm)*
G04 Created by KiCad (PCBNEW 9.0.4) date 2025-10-19 13:19:14*
%MOMM*%
%LPD*%
G01*
G04 APERTURE LIST*
G04 Aperture macros list*
%AMRoundRect*
0 Rectangle with rounded corners*
0 $1 Rounding radius*
0 $2 $3 $4 $5 $6 $7 $8 $9 X,Y pos of 4 corners*
0 Add a 4 corners polygon primitive as box body*
4,1,4,$2,$3,$4,$5,$6,$7,$8,$9,$2,$3,0*
0 Add four circle primitives for the rounded corners*
1,1,$1+$1,$2,$3*
1,1,$1+$1,$4,$5*
1,1,$1+$1,$6,$7*
1,1,$1+$1,$8,$9*
0 Add four rect primitives between the rounded corners*
20,1,$1+$1,$2,$3,$4,$5,0*
20,1,$1+$1,$4,$5,$6,$7,0*
20,1,$1+$1,$6,$7,$8,$9,0*
20,1,$1+$1,$8,$9,$2,$3,0*%
G04 Aperture macros list end*
%ADD10RoundRect,0.500000X1.000000X0.500000X-1.000000X0.500000X-1.000000X-0.500000X1.000000X-0.500000X0*%
%ADD11C,1.800000*%
%ADD12R,1.800000X1.800000*%
%ADD13C,1.701800*%
%ADD14C,3.000000*%
%ADD15C,3.987800*%
%ADD16C,3.048000*%
%ADD17O,1.000000X2.100000*%
%ADD18O,1.000000X1.600000*%
%ADD19C,0.650000*%
%ADD20C,3.200000*%
%ADD21RoundRect,0.300000X-0.950000X0.450000X-0.950000X-0.450000X0.950000X-0.450000X0.950000X0.450000X0*%
G04 APERTURE END LIST*
D10*
%TO.C,RV1*%
X143681250Y-45925000D03*
X153181250Y-45925000D03*
D11*
X150931250Y-41825000D03*
X148431250Y-41825000D03*
D12*
X145931250Y-41825000D03*
%TD*%
D13*
%TO.C,SW1*%
X86836250Y-28575000D03*
D14*
X84296250Y-23495000D03*
D15*
X81756250Y-28575000D03*
D14*
X77946250Y-26035000D03*
D13*
X76676250Y-28575000D03*
%TD*%
%TO.C,SW3*%
X63023750Y-47625000D03*
D14*
X60483750Y-42545000D03*
D15*
X57943750Y-47625000D03*
D14*
X54133750Y-45085000D03*
D13*
X52863750Y-47625000D03*
%TD*%
%TO.C,SW4*%
X86836250Y-47625000D03*
D14*
X84296250Y-42545000D03*
D15*
X81756250Y-47625000D03*
D14*
X77946250Y-45085000D03*
D13*
X76676250Y-47625000D03*
%TD*%
%TO.C,SW5*%
X110648750Y-47625000D03*
D14*
X108108750Y-42545000D03*
D15*
X105568750Y-47625000D03*
D14*
X101758750Y-45085000D03*
D13*
X100488750Y-47625000D03*
%TD*%
%TO.C,SW6*%
X58261250Y-66675000D03*
D14*
X55721250Y-61595000D03*
D15*
X53181250Y-66675000D03*
D14*
X49371250Y-64135000D03*
D13*
X48101250Y-66675000D03*
%TD*%
%TO.C,SW7*%
X77311250Y-66675000D03*
D14*
X74771250Y-61595000D03*
D15*
X72231250Y-66675000D03*
D14*
X68421250Y-64135000D03*
D13*
X67151250Y-66675000D03*
%TD*%
%TO.C,SW8*%
X96361250Y-66675000D03*
D14*
X93821250Y-61595000D03*
D15*
X91281250Y-66675000D03*
D14*
X87471250Y-64135000D03*
D13*
X86201250Y-66675000D03*
%TD*%
%TO.C,SW9*%
X115411250Y-66675000D03*
D14*
X112871250Y-61595000D03*
D15*
X110331250Y-66675000D03*
D14*
X106521250Y-64135000D03*
D13*
X105251250Y-66675000D03*
%TD*%
%TO.C,SW11*%
X220186300Y-28575000D03*
D14*
X217646300Y-23495000D03*
D15*
X215106300Y-28575000D03*
D14*
X211296300Y-26035000D03*
D13*
X210026300Y-28575000D03*
%TD*%
%TO.C,SW13*%
X196373750Y-47625000D03*
D14*
X193833750Y-42545000D03*
D15*
X191293750Y-47625000D03*
D14*
X187483750Y-45085000D03*
D13*
X186213750Y-47625000D03*
%TD*%
%TO.C,SW14*%
X220186250Y-47625000D03*
D14*
X217646250Y-42545000D03*
D15*
X215106250Y-47625000D03*
D14*
X211296250Y-45085000D03*
D13*
X210026250Y-47625000D03*
%TD*%
%TO.C,SW15*%
X243998750Y-47625000D03*
D14*
X241458750Y-42545000D03*
D15*
X238918750Y-47625000D03*
D14*
X235108750Y-45085000D03*
D13*
X233838750Y-47625000D03*
%TD*%
%TO.C,SW16*%
X191611250Y-66675000D03*
D14*
X189071250Y-61595000D03*
D15*
X186531250Y-66675000D03*
D14*
X182721250Y-64135000D03*
D13*
X181451250Y-66675000D03*
%TD*%
%TO.C,SW17*%
X210661250Y-66675000D03*
D14*
X208121250Y-61595000D03*
D15*
X205581250Y-66675000D03*
D14*
X201771250Y-64135000D03*
D13*
X200501250Y-66675000D03*
%TD*%
%TO.C,SW18*%
X229711250Y-66675000D03*
D14*
X227171250Y-61595000D03*
D15*
X224631250Y-66675000D03*
D14*
X220821250Y-64135000D03*
D13*
X219551250Y-66675000D03*
%TD*%
%TO.C,SW19*%
X248761250Y-66675000D03*
D14*
X246221250Y-61595000D03*
D15*
X243681250Y-66675000D03*
D14*
X239871250Y-64135000D03*
D13*
X238601250Y-66675000D03*
%TD*%
D15*
%TO.C,SW21*%
X160369250Y-93980000D03*
D16*
X160369250Y-78740000D03*
D13*
X153511250Y-85725000D03*
D14*
X150971250Y-80645000D03*
D15*
X148431250Y-85725000D03*
D14*
X144621250Y-83185000D03*
D13*
X143351250Y-85725000D03*
D15*
X136493250Y-93980000D03*
D16*
X136493250Y-78740000D03*
%TD*%
D17*
%TO.C,USB1*%
X120239250Y-24991500D03*
D18*
X120239250Y-20811500D03*
D17*
X111599250Y-24991500D03*
D18*
X111599250Y-20811500D03*
D19*
X118809250Y-24461500D03*
X113029250Y-24461500D03*
%TD*%
D20*
%TO.C,M1*%
X29311950Y-25131350D03*
%TD*%
D21*
%TO.C,U1*%
X127061250Y-61912500D03*
X123781250Y-62912500D03*
X123761250Y-60912500D03*
%TD*%
D20*
%TO.C,M2*%
X267772450Y-25131350D03*
%TD*%
%TO.C,M3*%
X29311950Y-90131300D03*
%TD*%
%TO.C,M4*%
X267772450Y-90131300D03*
%TD*%
%TO.C,M6*%
X167481250Y-44450000D03*
%TD*%
%TO.C,M5*%
X129381250Y-44450000D03*
%TD*%
D16*
%TO.C,SW20*%
X174593250Y-78740000D03*
D15*
X174593250Y-93980000D03*
D13*
X181451250Y-85725000D03*
D14*
X182721250Y-83185000D03*
D15*
X186531250Y-85725000D03*
D14*
X189071250Y-80645000D03*
D13*
X191611250Y-85725000D03*
D16*
X198469250Y-78740000D03*
D15*
X198469250Y-93980000D03*
%TD*%
D16*
%TO.C,SW12*%
X255752600Y-69088000D03*
D15*
X270992600Y-69088000D03*
D13*
X262737600Y-62230000D03*
D14*
X260197600Y-60960000D03*
D15*
X262737600Y-57150000D03*
D14*
X257657600Y-54610000D03*
D13*
X262737600Y-52070000D03*
D16*
X255752600Y-45212000D03*
D15*
X270992600Y-45212000D03*
%TD*%
%TO.C,SW10*%
X122269250Y-93980000D03*
D16*
X122269250Y-78740000D03*
D13*
X115411250Y-85725000D03*
D14*
X112871250Y-80645000D03*
D15*
X110331250Y-85725000D03*
D14*
X106521250Y-83185000D03*
D13*
X105251250Y-85725000D03*
D15*
X98393250Y-93980000D03*
D16*
X98393250Y-78740000D03*
%TD*%
%TO.C,SW2*%
X41116250Y-45212000D03*
D15*
X25876250Y-45212000D03*
D13*
X34131250Y-52070000D03*
D14*
X36671250Y-53340000D03*
D15*
X34131250Y-57150000D03*
D14*
X39211250Y-59690000D03*
D13*
X34131250Y-62230000D03*
D16*
X41116250Y-69088000D03*
D15*
X25876250Y-69088000D03*
%TD*%
M02*
