%TF.GenerationSoftware,KiCad,Pcbnew,9.0.4*%
%TF.CreationDate,2025-10-19T13:19:14+07:00*%
%TF.ProjectId,gekimax,67656b69-6d61-4782-9e6b-696361645f70,rev?*%
%TF.SameCoordinates,Original*%
%TF.FileFunction,Profile,NP*%
%FSLAX46Y46*%
G04 Gerber Fmt 4.6, Leading zero omitted, Abs format (unit mm)*
G04 Created by KiCad (PCBNEW 9.0.4) date 2025-10-19 13:19:14*
%MOMM*%
%LPD*%
G01*
G04 APERTURE LIST*
%TA.AperFunction,Profile*%
%ADD10C,0.200000*%
%TD*%
%TA.AperFunction,Profile*%
%ADD11C,0.100000*%
%TD*%
G04 APERTURE END LIST*
D10*
X163431250Y-36700000D02*
X133431250Y-36700000D01*
X133431200Y-17631300D02*
X133431250Y-36700000D01*
X275272450Y-90131300D02*
G75*
G02*
X267772450Y-97631250I-7499950J0D01*
G01*
X163431200Y-17631300D02*
X267772450Y-17631350D01*
X267772450Y-17631350D02*
G75*
G02*
X275272450Y-25131350I50J-7499950D01*
G01*
X29311950Y-97631300D02*
G75*
G02*
X21811950Y-90131300I0J7500000D01*
G01*
X21811950Y-90131300D02*
X21811950Y-25131350D01*
X163431200Y-17631300D02*
X163431258Y-36700000D01*
X275272450Y-25131350D02*
X275272450Y-90131300D01*
X21811950Y-25131350D02*
G75*
G02*
X29311950Y-17631350I7500000J0D01*
G01*
X267772450Y-97631300D02*
X29311950Y-97631300D01*
X29311946Y-17631351D02*
X133431200Y-17631300D01*
D11*
%TO.C,D19*%
X241981251Y-71052657D02*
X241981251Y-72458341D01*
X242886798Y-73255499D02*
X244475702Y-73255499D01*
X244475703Y-70255500D02*
X242886798Y-70255500D01*
X245381249Y-72458341D02*
X245381249Y-71052657D01*
X241931766Y-70835779D02*
G75*
G02*
X241981240Y-71052657I-450816J-216921D01*
G01*
X241931766Y-70835779D02*
G75*
G02*
X242634539Y-70187200I450514J216879D01*
G01*
X241981251Y-72458342D02*
G75*
G02*
X241931766Y-72675219I-500351J82D01*
G01*
X242634539Y-73323796D02*
G75*
G02*
X241931770Y-72675221I-252259J431696D01*
G01*
X242634540Y-73323798D02*
G75*
G02*
X242886798Y-73255500I252260J-431712D01*
G01*
X242886797Y-70255499D02*
G75*
G02*
X242634539Y-70187200I3J500009D01*
G01*
X244475702Y-73255499D02*
G75*
G02*
X244727961Y-73323798I-2J-500009D01*
G01*
X244727961Y-70187201D02*
G75*
G02*
X244475703Y-70255500I-252261J431710D01*
G01*
X244727961Y-70187201D02*
G75*
G02*
X245430734Y-70835779I252258J-431701D01*
G01*
X245381249Y-71052656D02*
G75*
G02*
X245430734Y-70835779I499990J1D01*
G01*
X245430734Y-72675218D02*
G75*
G02*
X244727961Y-73323798I-450514J-216880D01*
G01*
X245430734Y-72675219D02*
G75*
G02*
X245381249Y-72458341I450505J216876D01*
G01*
%TO.C,D17*%
X203881251Y-71052657D02*
X203881251Y-72458341D01*
X204786798Y-73255499D02*
X206375702Y-73255499D01*
X206375703Y-70255500D02*
X204786798Y-70255500D01*
X207281249Y-72458341D02*
X207281249Y-71052657D01*
X203831766Y-70835779D02*
G75*
G02*
X203881240Y-71052657I-450816J-216921D01*
G01*
X203831766Y-70835779D02*
G75*
G02*
X204534539Y-70187200I450514J216879D01*
G01*
X203881251Y-72458342D02*
G75*
G02*
X203831766Y-72675219I-500351J82D01*
G01*
X204534539Y-73323796D02*
G75*
G02*
X203831770Y-72675221I-252259J431696D01*
G01*
X204534540Y-73323798D02*
G75*
G02*
X204786798Y-73255500I252260J-431712D01*
G01*
X204786797Y-70255499D02*
G75*
G02*
X204534539Y-70187200I3J500009D01*
G01*
X206375702Y-73255499D02*
G75*
G02*
X206627961Y-73323798I-2J-500009D01*
G01*
X206627961Y-70187201D02*
G75*
G02*
X206375703Y-70255500I-252261J431710D01*
G01*
X206627961Y-70187201D02*
G75*
G02*
X207330734Y-70835779I252258J-431701D01*
G01*
X207281249Y-71052656D02*
G75*
G02*
X207330734Y-70835779I499990J1D01*
G01*
X207330734Y-72675218D02*
G75*
G02*
X206627961Y-73323798I-450514J-216880D01*
G01*
X207330734Y-72675219D02*
G75*
G02*
X207281249Y-72458341I450505J216876D01*
G01*
%TO.C,D5*%
X103868751Y-52002657D02*
X103868751Y-53408341D01*
X104774298Y-54205499D02*
X106363202Y-54205499D01*
X106363203Y-51205500D02*
X104774298Y-51205500D01*
X107268749Y-53408341D02*
X107268749Y-52002657D01*
X103819266Y-51785779D02*
G75*
G02*
X103868740Y-52002657I-450816J-216921D01*
G01*
X103819266Y-51785779D02*
G75*
G02*
X104522039Y-51137200I450514J216879D01*
G01*
X103868751Y-53408342D02*
G75*
G02*
X103819266Y-53625219I-500351J82D01*
G01*
X104522039Y-54273796D02*
G75*
G02*
X103819270Y-53625221I-252259J431696D01*
G01*
X104522040Y-54273798D02*
G75*
G02*
X104774298Y-54205500I252260J-431712D01*
G01*
X104774297Y-51205499D02*
G75*
G02*
X104522039Y-51137200I3J500009D01*
G01*
X106363202Y-54205499D02*
G75*
G02*
X106615461Y-54273798I-2J-500009D01*
G01*
X106615461Y-51137201D02*
G75*
G02*
X106363203Y-51205500I-252261J431710D01*
G01*
X106615461Y-51137201D02*
G75*
G02*
X107318234Y-51785779I252258J-431701D01*
G01*
X107268749Y-52002656D02*
G75*
G02*
X107318234Y-51785779I499990J1D01*
G01*
X107318234Y-53625218D02*
G75*
G02*
X106615461Y-54273798I-450514J-216880D01*
G01*
X107318234Y-53625219D02*
G75*
G02*
X107268749Y-53408341I450505J216876D01*
G01*
%TO.C,D20*%
X184831251Y-90102657D02*
X184831251Y-91508341D01*
X185736798Y-92305499D02*
X187325702Y-92305499D01*
X187325703Y-89305500D02*
X185736798Y-89305500D01*
X188231249Y-91508341D02*
X188231249Y-90102657D01*
X184781766Y-89885779D02*
G75*
G02*
X184831240Y-90102657I-450816J-216921D01*
G01*
X184781766Y-89885779D02*
G75*
G02*
X185484539Y-89237200I450514J216879D01*
G01*
X184831251Y-91508342D02*
G75*
G02*
X184781766Y-91725219I-500351J82D01*
G01*
X185484539Y-92373796D02*
G75*
G02*
X184781770Y-91725221I-252259J431696D01*
G01*
X185484540Y-92373798D02*
G75*
G02*
X185736798Y-92305500I252260J-431712D01*
G01*
X185736797Y-89305499D02*
G75*
G02*
X185484539Y-89237200I3J500009D01*
G01*
X187325702Y-92305499D02*
G75*
G02*
X187577961Y-92373798I-2J-500009D01*
G01*
X187577961Y-89237201D02*
G75*
G02*
X187325703Y-89305500I-252261J431710D01*
G01*
X187577961Y-89237201D02*
G75*
G02*
X188280734Y-89885779I252258J-431701D01*
G01*
X188231249Y-90102656D02*
G75*
G02*
X188280734Y-89885779I499990J1D01*
G01*
X188280734Y-91725218D02*
G75*
G02*
X187577961Y-92373798I-450514J-216880D01*
G01*
X188280734Y-91725219D02*
G75*
G02*
X188231249Y-91508341I450505J216876D01*
G01*
%TO.C,D2*%
X27551251Y-56355548D02*
X27551251Y-57944452D01*
X28348409Y-58849999D02*
X29754093Y-58849999D01*
X29754093Y-55450001D02*
X28348409Y-55450001D01*
X30551250Y-57944453D02*
X30551250Y-56355548D01*
X27482952Y-56103290D02*
G75*
G02*
X27551250Y-56355548I-431712J-252260D01*
G01*
X27482954Y-56103289D02*
G75*
G02*
X28131529Y-55400520I431696J252259D01*
G01*
X27551251Y-57944452D02*
G75*
G02*
X27482952Y-58196711I-500009J2D01*
G01*
X28131531Y-58899484D02*
G75*
G02*
X28348409Y-58849999I216876J-450505D01*
G01*
X28131532Y-58899484D02*
G75*
G02*
X27482952Y-58196711I-216880J450514D01*
G01*
X28348408Y-55450001D02*
G75*
G02*
X28131531Y-55400516I82J500351D01*
G01*
X29754094Y-58849999D02*
G75*
G02*
X29970971Y-58899484I1J-499990D01*
G01*
X29970971Y-55400516D02*
G75*
G02*
X29754093Y-55449990I-216921J450816D01*
G01*
X29970971Y-55400516D02*
G75*
G02*
X30619550Y-56103289I216879J-450514D01*
G01*
X30551251Y-56355547D02*
G75*
G02*
X30619550Y-56103289I500009J-3D01*
G01*
X30619549Y-58196711D02*
G75*
G02*
X29970971Y-58899484I-431701J-252258D01*
G01*
X30619549Y-58196711D02*
G75*
G02*
X30551250Y-57944453I431710J252261D01*
G01*
%TO.C,D3*%
X56243751Y-52002657D02*
X56243751Y-53408341D01*
X57149298Y-54205499D02*
X58738202Y-54205499D01*
X58738203Y-51205500D02*
X57149298Y-51205500D01*
X59643749Y-53408341D02*
X59643749Y-52002657D01*
X56194266Y-51785779D02*
G75*
G02*
X56243740Y-52002657I-450816J-216921D01*
G01*
X56194266Y-51785779D02*
G75*
G02*
X56897039Y-51137200I450514J216879D01*
G01*
X56243751Y-53408342D02*
G75*
G02*
X56194266Y-53625219I-500351J82D01*
G01*
X56897039Y-54273796D02*
G75*
G02*
X56194270Y-53625221I-252259J431696D01*
G01*
X56897040Y-54273798D02*
G75*
G02*
X57149298Y-54205500I252260J-431712D01*
G01*
X57149297Y-51205499D02*
G75*
G02*
X56897039Y-51137200I3J500009D01*
G01*
X58738202Y-54205499D02*
G75*
G02*
X58990461Y-54273798I-2J-500009D01*
G01*
X58990461Y-51137201D02*
G75*
G02*
X58738203Y-51205500I-252261J431710D01*
G01*
X58990461Y-51137201D02*
G75*
G02*
X59693234Y-51785779I252258J-431701D01*
G01*
X59643749Y-52002656D02*
G75*
G02*
X59693234Y-51785779I499990J1D01*
G01*
X59693234Y-53625218D02*
G75*
G02*
X58990461Y-54273798I-450514J-216880D01*
G01*
X59693234Y-53625219D02*
G75*
G02*
X59643749Y-53408341I450505J216876D01*
G01*
%TO.C,D15*%
X237218751Y-52002657D02*
X237218751Y-53408341D01*
X238124298Y-54205499D02*
X239713202Y-54205499D01*
X239713203Y-51205500D02*
X238124298Y-51205500D01*
X240618749Y-53408341D02*
X240618749Y-52002657D01*
X237169266Y-51785779D02*
G75*
G02*
X237218740Y-52002657I-450816J-216921D01*
G01*
X237169266Y-51785779D02*
G75*
G02*
X237872039Y-51137200I450514J216879D01*
G01*
X237218751Y-53408342D02*
G75*
G02*
X237169266Y-53625219I-500351J82D01*
G01*
X237872039Y-54273796D02*
G75*
G02*
X237169270Y-53625221I-252259J431696D01*
G01*
X237872040Y-54273798D02*
G75*
G02*
X238124298Y-54205500I252260J-431712D01*
G01*
X238124297Y-51205499D02*
G75*
G02*
X237872039Y-51137200I3J500009D01*
G01*
X239713202Y-54205499D02*
G75*
G02*
X239965461Y-54273798I-2J-500009D01*
G01*
X239965461Y-51137201D02*
G75*
G02*
X239713203Y-51205500I-252261J431710D01*
G01*
X239965461Y-51137201D02*
G75*
G02*
X240668234Y-51785779I252258J-431701D01*
G01*
X240618749Y-52002656D02*
G75*
G02*
X240668234Y-51785779I499990J1D01*
G01*
X240668234Y-53625218D02*
G75*
G02*
X239965461Y-54273798I-450514J-216880D01*
G01*
X240668234Y-53625219D02*
G75*
G02*
X240618749Y-53408341I450505J216876D01*
G01*
%TO.C,D12*%
X266317600Y-56193047D02*
X266317600Y-57781952D01*
X267114757Y-58687499D02*
X268520441Y-58687499D01*
X268520441Y-55287501D02*
X267114757Y-55287501D01*
X269317599Y-57781952D02*
X269317599Y-56193048D01*
X266249301Y-55940789D02*
G75*
G02*
X266317600Y-56193047I-431710J-252261D01*
G01*
X266249301Y-55940789D02*
G75*
G02*
X266897879Y-55238016I431701J252258D01*
G01*
X266317599Y-57781953D02*
G75*
G02*
X266249300Y-58034211I-500009J3D01*
G01*
X266897879Y-58736984D02*
G75*
G02*
X266249300Y-58034211I-216879J450514D01*
G01*
X266897879Y-58736984D02*
G75*
G02*
X267114757Y-58687510I216921J-450816D01*
G01*
X267114756Y-55287501D02*
G75*
G02*
X266897879Y-55238016I-1J499990D01*
G01*
X268520442Y-58687499D02*
G75*
G02*
X268737319Y-58736984I-82J-500351D01*
G01*
X268737318Y-55238016D02*
G75*
G02*
X269385898Y-55940789I216880J-450514D01*
G01*
X268737319Y-55238016D02*
G75*
G02*
X268520441Y-55287501I-216876J450505D01*
G01*
X269317599Y-56193048D02*
G75*
G02*
X269385898Y-55940789I500009J-2D01*
G01*
X269385896Y-58034211D02*
G75*
G02*
X268737321Y-58736980I-431696J-252259D01*
G01*
X269385898Y-58034210D02*
G75*
G02*
X269317600Y-57781952I431712J252260D01*
G01*
%TO.C,D21*%
X146731251Y-90102657D02*
X146731251Y-91508341D01*
X147636798Y-92305499D02*
X149225702Y-92305499D01*
X149225703Y-89305500D02*
X147636798Y-89305500D01*
X150131249Y-91508341D02*
X150131249Y-90102657D01*
X146681766Y-89885779D02*
G75*
G02*
X146731240Y-90102657I-450816J-216921D01*
G01*
X146681766Y-89885779D02*
G75*
G02*
X147384539Y-89237200I450514J216879D01*
G01*
X146731251Y-91508342D02*
G75*
G02*
X146681766Y-91725219I-500351J82D01*
G01*
X147384539Y-92373796D02*
G75*
G02*
X146681770Y-91725221I-252259J431696D01*
G01*
X147384540Y-92373798D02*
G75*
G02*
X147636798Y-92305500I252260J-431712D01*
G01*
X147636797Y-89305499D02*
G75*
G02*
X147384539Y-89237200I3J500009D01*
G01*
X149225702Y-92305499D02*
G75*
G02*
X149477961Y-92373798I-2J-500009D01*
G01*
X149477961Y-89237201D02*
G75*
G02*
X149225703Y-89305500I-252261J431710D01*
G01*
X149477961Y-89237201D02*
G75*
G02*
X150180734Y-89885779I252258J-431701D01*
G01*
X150131249Y-90102656D02*
G75*
G02*
X150180734Y-89885779I499990J1D01*
G01*
X150180734Y-91725218D02*
G75*
G02*
X149477961Y-92373798I-450514J-216880D01*
G01*
X150180734Y-91725219D02*
G75*
G02*
X150131249Y-91508341I450505J216876D01*
G01*
%TO.C,D13*%
X189593751Y-52002657D02*
X189593751Y-53408341D01*
X190499298Y-54205499D02*
X192088202Y-54205499D01*
X192088203Y-51205500D02*
X190499298Y-51205500D01*
X192993749Y-53408341D02*
X192993749Y-52002657D01*
X189544266Y-51785779D02*
G75*
G02*
X189593740Y-52002657I-450816J-216921D01*
G01*
X189544266Y-51785779D02*
G75*
G02*
X190247039Y-51137200I450514J216879D01*
G01*
X189593751Y-53408342D02*
G75*
G02*
X189544266Y-53625219I-500351J82D01*
G01*
X190247039Y-54273796D02*
G75*
G02*
X189544270Y-53625221I-252259J431696D01*
G01*
X190247040Y-54273798D02*
G75*
G02*
X190499298Y-54205500I252260J-431712D01*
G01*
X190499297Y-51205499D02*
G75*
G02*
X190247039Y-51137200I3J500009D01*
G01*
X192088202Y-54205499D02*
G75*
G02*
X192340461Y-54273798I-2J-500009D01*
G01*
X192340461Y-51137201D02*
G75*
G02*
X192088203Y-51205500I-252261J431710D01*
G01*
X192340461Y-51137201D02*
G75*
G02*
X193043234Y-51785779I252258J-431701D01*
G01*
X192993749Y-52002656D02*
G75*
G02*
X193043234Y-51785779I499990J1D01*
G01*
X193043234Y-53625218D02*
G75*
G02*
X192340461Y-54273798I-450514J-216880D01*
G01*
X193043234Y-53625219D02*
G75*
G02*
X192993749Y-53408341I450505J216876D01*
G01*
%TO.C,D16*%
X184831251Y-71052657D02*
X184831251Y-72458341D01*
X185736798Y-73255499D02*
X187325702Y-73255499D01*
X187325703Y-70255500D02*
X185736798Y-70255500D01*
X188231249Y-72458341D02*
X188231249Y-71052657D01*
X184781766Y-70835779D02*
G75*
G02*
X184831240Y-71052657I-450816J-216921D01*
G01*
X184781766Y-70835779D02*
G75*
G02*
X185484539Y-70187200I450514J216879D01*
G01*
X184831251Y-72458342D02*
G75*
G02*
X184781766Y-72675219I-500351J82D01*
G01*
X185484539Y-73323796D02*
G75*
G02*
X184781770Y-72675221I-252259J431696D01*
G01*
X185484540Y-73323798D02*
G75*
G02*
X185736798Y-73255500I252260J-431712D01*
G01*
X185736797Y-70255499D02*
G75*
G02*
X185484539Y-70187200I3J500009D01*
G01*
X187325702Y-73255499D02*
G75*
G02*
X187577961Y-73323798I-2J-500009D01*
G01*
X187577961Y-70187201D02*
G75*
G02*
X187325703Y-70255500I-252261J431710D01*
G01*
X187577961Y-70187201D02*
G75*
G02*
X188280734Y-70835779I252258J-431701D01*
G01*
X188231249Y-71052656D02*
G75*
G02*
X188280734Y-70835779I499990J1D01*
G01*
X188280734Y-72675218D02*
G75*
G02*
X187577961Y-73323798I-450514J-216880D01*
G01*
X188280734Y-72675219D02*
G75*
G02*
X188231249Y-72458341I450505J216876D01*
G01*
%TO.C,D6*%
X51481251Y-71052657D02*
X51481251Y-72458341D01*
X52386798Y-73255499D02*
X53975702Y-73255499D01*
X53975703Y-70255500D02*
X52386798Y-70255500D01*
X54881249Y-72458341D02*
X54881249Y-71052657D01*
X51431766Y-70835779D02*
G75*
G02*
X51481240Y-71052657I-450816J-216921D01*
G01*
X51431766Y-70835779D02*
G75*
G02*
X52134539Y-70187200I450514J216879D01*
G01*
X51481251Y-72458342D02*
G75*
G02*
X51431766Y-72675219I-500351J82D01*
G01*
X52134539Y-73323796D02*
G75*
G02*
X51431770Y-72675221I-252259J431696D01*
G01*
X52134540Y-73323798D02*
G75*
G02*
X52386798Y-73255500I252260J-431712D01*
G01*
X52386797Y-70255499D02*
G75*
G02*
X52134539Y-70187200I3J500009D01*
G01*
X53975702Y-73255499D02*
G75*
G02*
X54227961Y-73323798I-2J-500009D01*
G01*
X54227961Y-70187201D02*
G75*
G02*
X53975703Y-70255500I-252261J431710D01*
G01*
X54227961Y-70187201D02*
G75*
G02*
X54930734Y-70835779I252258J-431701D01*
G01*
X54881249Y-71052656D02*
G75*
G02*
X54930734Y-70835779I499990J1D01*
G01*
X54930734Y-72675218D02*
G75*
G02*
X54227961Y-73323798I-450514J-216880D01*
G01*
X54930734Y-72675219D02*
G75*
G02*
X54881249Y-72458341I450505J216876D01*
G01*
%TO.C,D14*%
X213406251Y-52002657D02*
X213406251Y-53408341D01*
X214311798Y-54205499D02*
X215900702Y-54205499D01*
X215900703Y-51205500D02*
X214311798Y-51205500D01*
X216806249Y-53408341D02*
X216806249Y-52002657D01*
X213356766Y-51785779D02*
G75*
G02*
X213406240Y-52002657I-450816J-216921D01*
G01*
X213356766Y-51785779D02*
G75*
G02*
X214059539Y-51137200I450514J216879D01*
G01*
X213406251Y-53408342D02*
G75*
G02*
X213356766Y-53625219I-500351J82D01*
G01*
X214059539Y-54273796D02*
G75*
G02*
X213356770Y-53625221I-252259J431696D01*
G01*
X214059540Y-54273798D02*
G75*
G02*
X214311798Y-54205500I252260J-431712D01*
G01*
X214311797Y-51205499D02*
G75*
G02*
X214059539Y-51137200I3J500009D01*
G01*
X215900702Y-54205499D02*
G75*
G02*
X216152961Y-54273798I-2J-500009D01*
G01*
X216152961Y-51137201D02*
G75*
G02*
X215900703Y-51205500I-252261J431710D01*
G01*
X216152961Y-51137201D02*
G75*
G02*
X216855734Y-51785779I252258J-431701D01*
G01*
X216806249Y-52002656D02*
G75*
G02*
X216855734Y-51785779I499990J1D01*
G01*
X216855734Y-53625218D02*
G75*
G02*
X216152961Y-54273798I-450514J-216880D01*
G01*
X216855734Y-53625219D02*
G75*
G02*
X216806249Y-53408341I450505J216876D01*
G01*
%TO.C,D10*%
X108631251Y-90102657D02*
X108631251Y-91508341D01*
X109536798Y-92305499D02*
X111125702Y-92305499D01*
X111125703Y-89305500D02*
X109536798Y-89305500D01*
X112031249Y-91508341D02*
X112031249Y-90102657D01*
X108581766Y-89885779D02*
G75*
G02*
X108631240Y-90102657I-450816J-216921D01*
G01*
X108581766Y-89885779D02*
G75*
G02*
X109284539Y-89237200I450514J216879D01*
G01*
X108631251Y-91508342D02*
G75*
G02*
X108581766Y-91725219I-500351J82D01*
G01*
X109284539Y-92373796D02*
G75*
G02*
X108581770Y-91725221I-252259J431696D01*
G01*
X109284540Y-92373798D02*
G75*
G02*
X109536798Y-92305500I252260J-431712D01*
G01*
X109536797Y-89305499D02*
G75*
G02*
X109284539Y-89237200I3J500009D01*
G01*
X111125702Y-92305499D02*
G75*
G02*
X111377961Y-92373798I-2J-500009D01*
G01*
X111377961Y-89237201D02*
G75*
G02*
X111125703Y-89305500I-252261J431710D01*
G01*
X111377961Y-89237201D02*
G75*
G02*
X112080734Y-89885779I252258J-431701D01*
G01*
X112031249Y-90102656D02*
G75*
G02*
X112080734Y-89885779I499990J1D01*
G01*
X112080734Y-91725218D02*
G75*
G02*
X111377961Y-92373798I-450514J-216880D01*
G01*
X112080734Y-91725219D02*
G75*
G02*
X112031249Y-91508341I450505J216876D01*
G01*
%TO.C,D8*%
X89581251Y-71052657D02*
X89581251Y-72458341D01*
X90486798Y-73255499D02*
X92075702Y-73255499D01*
X92075703Y-70255500D02*
X90486798Y-70255500D01*
X92981249Y-72458341D02*
X92981249Y-71052657D01*
X89531766Y-70835779D02*
G75*
G02*
X89581240Y-71052657I-450816J-216921D01*
G01*
X89531766Y-70835779D02*
G75*
G02*
X90234539Y-70187200I450514J216879D01*
G01*
X89581251Y-72458342D02*
G75*
G02*
X89531766Y-72675219I-500351J82D01*
G01*
X90234539Y-73323796D02*
G75*
G02*
X89531770Y-72675221I-252259J431696D01*
G01*
X90234540Y-73323798D02*
G75*
G02*
X90486798Y-73255500I252260J-431712D01*
G01*
X90486797Y-70255499D02*
G75*
G02*
X90234539Y-70187200I3J500009D01*
G01*
X92075702Y-73255499D02*
G75*
G02*
X92327961Y-73323798I-2J-500009D01*
G01*
X92327961Y-70187201D02*
G75*
G02*
X92075703Y-70255500I-252261J431710D01*
G01*
X92327961Y-70187201D02*
G75*
G02*
X93030734Y-70835779I252258J-431701D01*
G01*
X92981249Y-71052656D02*
G75*
G02*
X93030734Y-70835779I499990J1D01*
G01*
X93030734Y-72675218D02*
G75*
G02*
X92327961Y-73323798I-450514J-216880D01*
G01*
X93030734Y-72675219D02*
G75*
G02*
X92981249Y-72458341I450505J216876D01*
G01*
%TO.C,D18*%
X222931251Y-71052657D02*
X222931251Y-72458341D01*
X223836798Y-73255499D02*
X225425702Y-73255499D01*
X225425703Y-70255500D02*
X223836798Y-70255500D01*
X226331249Y-72458341D02*
X226331249Y-71052657D01*
X222881766Y-70835779D02*
G75*
G02*
X222931240Y-71052657I-450816J-216921D01*
G01*
X222881766Y-70835779D02*
G75*
G02*
X223584539Y-70187200I450514J216879D01*
G01*
X222931251Y-72458342D02*
G75*
G02*
X222881766Y-72675219I-500351J82D01*
G01*
X223584539Y-73323796D02*
G75*
G02*
X222881770Y-72675221I-252259J431696D01*
G01*
X223584540Y-73323798D02*
G75*
G02*
X223836798Y-73255500I252260J-431712D01*
G01*
X223836797Y-70255499D02*
G75*
G02*
X223584539Y-70187200I3J500009D01*
G01*
X225425702Y-73255499D02*
G75*
G02*
X225677961Y-73323798I-2J-500009D01*
G01*
X225677961Y-70187201D02*
G75*
G02*
X225425703Y-70255500I-252261J431710D01*
G01*
X225677961Y-70187201D02*
G75*
G02*
X226380734Y-70835779I252258J-431701D01*
G01*
X226331249Y-71052656D02*
G75*
G02*
X226380734Y-70835779I499990J1D01*
G01*
X226380734Y-72675218D02*
G75*
G02*
X225677961Y-73323798I-450514J-216880D01*
G01*
X226380734Y-72675219D02*
G75*
G02*
X226331249Y-72458341I450505J216876D01*
G01*
%TO.C,D7*%
X70525351Y-71052657D02*
X70525351Y-72458341D01*
X71430898Y-73255499D02*
X73019802Y-73255499D01*
X73019803Y-70255500D02*
X71430898Y-70255500D01*
X73925349Y-72458341D02*
X73925349Y-71052657D01*
X70475866Y-70835779D02*
G75*
G02*
X70525340Y-71052657I-450816J-216921D01*
G01*
X70475866Y-70835779D02*
G75*
G02*
X71178639Y-70187200I450514J216879D01*
G01*
X70525351Y-72458342D02*
G75*
G02*
X70475866Y-72675219I-500351J82D01*
G01*
X71178639Y-73323796D02*
G75*
G02*
X70475870Y-72675221I-252259J431696D01*
G01*
X71178640Y-73323798D02*
G75*
G02*
X71430898Y-73255500I252260J-431712D01*
G01*
X71430897Y-70255499D02*
G75*
G02*
X71178639Y-70187200I3J500009D01*
G01*
X73019802Y-73255499D02*
G75*
G02*
X73272061Y-73323798I-2J-500009D01*
G01*
X73272061Y-70187201D02*
G75*
G02*
X73019803Y-70255500I-252261J431710D01*
G01*
X73272061Y-70187201D02*
G75*
G02*
X73974834Y-70835779I252258J-431701D01*
G01*
X73925349Y-71052656D02*
G75*
G02*
X73974834Y-70835779I499990J1D01*
G01*
X73974834Y-72675218D02*
G75*
G02*
X73272061Y-73323798I-450514J-216880D01*
G01*
X73974834Y-72675219D02*
G75*
G02*
X73925349Y-72458341I450505J216876D01*
G01*
%TO.C,D11*%
X213406301Y-32952657D02*
X213406301Y-34358341D01*
X214311848Y-35155499D02*
X215900752Y-35155499D01*
X215900753Y-32155500D02*
X214311848Y-32155500D01*
X216806299Y-34358341D02*
X216806299Y-32952657D01*
X213356816Y-32735779D02*
G75*
G02*
X213406290Y-32952657I-450816J-216921D01*
G01*
X213356816Y-32735779D02*
G75*
G02*
X214059589Y-32087200I450514J216879D01*
G01*
X213406301Y-34358342D02*
G75*
G02*
X213356816Y-34575219I-500351J82D01*
G01*
X214059589Y-35223796D02*
G75*
G02*
X213356820Y-34575221I-252259J431696D01*
G01*
X214059590Y-35223798D02*
G75*
G02*
X214311848Y-35155500I252260J-431712D01*
G01*
X214311847Y-32155499D02*
G75*
G02*
X214059589Y-32087200I3J500009D01*
G01*
X215900752Y-35155499D02*
G75*
G02*
X216153011Y-35223798I-2J-500009D01*
G01*
X216153011Y-32087201D02*
G75*
G02*
X215900753Y-32155500I-252261J431710D01*
G01*
X216153011Y-32087201D02*
G75*
G02*
X216855784Y-32735779I252258J-431701D01*
G01*
X216806299Y-32952656D02*
G75*
G02*
X216855784Y-32735779I499990J1D01*
G01*
X216855784Y-34575218D02*
G75*
G02*
X216153011Y-35223798I-450514J-216880D01*
G01*
X216855784Y-34575219D02*
G75*
G02*
X216806299Y-34358341I450505J216876D01*
G01*
%TO.C,D9*%
X108631251Y-71052657D02*
X108631251Y-72458341D01*
X109536798Y-73255499D02*
X111125702Y-73255499D01*
X111125703Y-70255500D02*
X109536798Y-70255500D01*
X112031249Y-72458341D02*
X112031249Y-71052657D01*
X108581766Y-70835779D02*
G75*
G02*
X108631240Y-71052657I-450816J-216921D01*
G01*
X108581766Y-70835779D02*
G75*
G02*
X109284539Y-70187200I450514J216879D01*
G01*
X108631251Y-72458342D02*
G75*
G02*
X108581766Y-72675219I-500351J82D01*
G01*
X109284539Y-73323796D02*
G75*
G02*
X108581770Y-72675221I-252259J431696D01*
G01*
X109284540Y-73323798D02*
G75*
G02*
X109536798Y-73255500I252260J-431712D01*
G01*
X109536797Y-70255499D02*
G75*
G02*
X109284539Y-70187200I3J500009D01*
G01*
X111125702Y-73255499D02*
G75*
G02*
X111377961Y-73323798I-2J-500009D01*
G01*
X111377961Y-70187201D02*
G75*
G02*
X111125703Y-70255500I-252261J431710D01*
G01*
X111377961Y-70187201D02*
G75*
G02*
X112080734Y-70835779I252258J-431701D01*
G01*
X112031249Y-71052656D02*
G75*
G02*
X112080734Y-70835779I499990J1D01*
G01*
X112080734Y-72675218D02*
G75*
G02*
X111377961Y-73323798I-450514J-216880D01*
G01*
X112080734Y-72675219D02*
G75*
G02*
X112031249Y-72458341I450505J216876D01*
G01*
%TO.C,D4*%
X80056251Y-52002657D02*
X80056251Y-53408341D01*
X80961798Y-54205499D02*
X82550702Y-54205499D01*
X82550703Y-51205500D02*
X80961798Y-51205500D01*
X83456249Y-53408341D02*
X83456249Y-52002657D01*
X80006766Y-51785779D02*
G75*
G02*
X80056240Y-52002657I-450816J-216921D01*
G01*
X80006766Y-51785779D02*
G75*
G02*
X80709539Y-51137200I450514J216879D01*
G01*
X80056251Y-53408342D02*
G75*
G02*
X80006766Y-53625219I-500351J82D01*
G01*
X80709539Y-54273796D02*
G75*
G02*
X80006770Y-53625221I-252259J431696D01*
G01*
X80709540Y-54273798D02*
G75*
G02*
X80961798Y-54205500I252260J-431712D01*
G01*
X80961797Y-51205499D02*
G75*
G02*
X80709539Y-51137200I3J500009D01*
G01*
X82550702Y-54205499D02*
G75*
G02*
X82802961Y-54273798I-2J-500009D01*
G01*
X82802961Y-51137201D02*
G75*
G02*
X82550703Y-51205500I-252261J431710D01*
G01*
X82802961Y-51137201D02*
G75*
G02*
X83505734Y-51785779I252258J-431701D01*
G01*
X83456249Y-52002656D02*
G75*
G02*
X83505734Y-51785779I499990J1D01*
G01*
X83505734Y-53625218D02*
G75*
G02*
X82802961Y-54273798I-450514J-216880D01*
G01*
X83505734Y-53625219D02*
G75*
G02*
X83456249Y-53408341I450505J216876D01*
G01*
%TO.C,D1*%
X80056251Y-32952657D02*
X80056251Y-34358341D01*
X80961798Y-35155499D02*
X82550702Y-35155499D01*
X82550703Y-32155500D02*
X80961798Y-32155500D01*
X83456249Y-34358341D02*
X83456249Y-32952657D01*
X80006766Y-32735779D02*
G75*
G02*
X80056240Y-32952657I-450816J-216921D01*
G01*
X80006766Y-32735779D02*
G75*
G02*
X80709539Y-32087200I450514J216879D01*
G01*
X80056251Y-34358342D02*
G75*
G02*
X80006766Y-34575219I-500351J82D01*
G01*
X80709539Y-35223796D02*
G75*
G02*
X80006770Y-34575221I-252259J431696D01*
G01*
X80709540Y-35223798D02*
G75*
G02*
X80961798Y-35155500I252260J-431712D01*
G01*
X80961797Y-32155499D02*
G75*
G02*
X80709539Y-32087200I3J500009D01*
G01*
X82550702Y-35155499D02*
G75*
G02*
X82802961Y-35223798I-2J-500009D01*
G01*
X82802961Y-32087201D02*
G75*
G02*
X82550703Y-32155500I-252261J431710D01*
G01*
X82802961Y-32087201D02*
G75*
G02*
X83505734Y-32735779I252258J-431701D01*
G01*
X83456249Y-32952656D02*
G75*
G02*
X83505734Y-32735779I499990J1D01*
G01*
X83505734Y-34575218D02*
G75*
G02*
X82802961Y-35223798I-450514J-216880D01*
G01*
X83505734Y-34575219D02*
G75*
G02*
X83456249Y-34358341I450505J216876D01*
G01*
%TD*%
M02*
