%TF.GenerationSoftware,KiCad,Pcbnew,9.0.4*%
%TF.CreationDate,2025-10-19T13:19:14+07:00*%
%TF.ProjectId,gekimax,67656b69-6d61-4782-9e6b-696361645f70,rev?*%
%TF.SameCoordinates,Original*%
%TF.FileFunction,Paste,Bot*%
%TF.FilePolarity,Positive*%
%FSLAX46Y46*%
G04 Gerber Fmt 4.6, Leading zero omitted, Abs format (unit mm)*
G04 Created by KiCad (PCBNEW 9.0.4) date 2025-10-19 13:19:14*
%MOMM*%
%LPD*%
G01*
G04 APERTURE LIST*
G04 Aperture macros list*
%AMRoundRect*
0 Rectangle with rounded corners*
0 $1 Rounding radius*
0 $2 $3 $4 $5 $6 $7 $8 $9 X,Y pos of 4 corners*
0 Add a 4 corners polygon primitive as box body*
4,1,4,$2,$3,$4,$5,$6,$7,$8,$9,$2,$3,0*
0 Add four circle primitives for the rounded corners*
1,1,$1+$1,$2,$3*
1,1,$1+$1,$4,$5*
1,1,$1+$1,$6,$7*
1,1,$1+$1,$8,$9*
0 Add four rect primitives between the rounded corners*
20,1,$1+$1,$2,$3,$4,$5,0*
20,1,$1+$1,$4,$5,$6,$7,0*
20,1,$1+$1,$6,$7,$8,$9,0*
20,1,$1+$1,$8,$9,$2,$3,0*%
%AMFreePoly0*
4,1,18,-0.410000,0.593000,-0.403758,0.624380,-0.385983,0.650983,-0.359380,0.668758,-0.328000,0.675000,0.328000,0.675000,0.359380,0.668758,0.385983,0.650983,0.403758,0.624380,0.410000,0.593000,0.410000,-0.593000,0.403758,-0.624380,0.385983,-0.650983,0.359380,-0.668758,0.328000,-0.675000,0.000000,-0.675000,-0.410000,-0.265000,-0.410000,0.593000,-0.410000,0.593000,$1*%
G04 Aperture macros list end*
%ADD10RoundRect,0.105000X0.105000X0.545000X-0.105000X0.545000X-0.105000X-0.545000X0.105000X-0.545000X0*%
%ADD11RoundRect,0.250000X1.100000X-0.250000X1.100000X0.250000X-1.100000X0.250000X-1.100000X-0.250000X0*%
%ADD12RoundRect,0.150000X0.700000X-0.150000X0.700000X0.150000X-0.700000X0.150000X-0.700000X-0.150000X0*%
%ADD13RoundRect,0.250000X-1.100000X0.250000X-1.100000X-0.250000X1.100000X-0.250000X1.100000X0.250000X0*%
%ADD14RoundRect,0.150000X-0.700000X0.150000X-0.700000X-0.150000X0.700000X-0.150000X0.700000X0.150000X0*%
%ADD15RoundRect,0.237500X-0.250000X-0.237500X0.250000X-0.237500X0.250000X0.237500X-0.250000X0.237500X0*%
%ADD16RoundRect,0.200000X-1.075000X-1.050000X1.075000X-1.050000X1.075000X1.050000X-1.075000X1.050000X0*%
%ADD17R,0.600000X2.450000*%
%ADD18R,0.300000X2.450000*%
%ADD19RoundRect,0.250000X-0.475000X0.337500X-0.475000X-0.337500X0.475000X-0.337500X0.475000X0.337500X0*%
%ADD20RoundRect,0.250000X0.475000X-0.337500X0.475000X0.337500X-0.475000X0.337500X-0.475000X-0.337500X0*%
%ADD21RoundRect,0.082000X0.593000X-0.328000X0.593000X0.328000X-0.593000X0.328000X-0.593000X-0.328000X0*%
%ADD22FreePoly0,90.000000*%
%ADD23RoundRect,0.250000X-0.337500X-0.475000X0.337500X-0.475000X0.337500X0.475000X-0.337500X0.475000X0*%
%ADD24RoundRect,0.250000X0.337500X0.475000X-0.337500X0.475000X-0.337500X-0.475000X0.337500X-0.475000X0*%
%ADD25RoundRect,0.082000X-0.328000X-0.593000X0.328000X-0.593000X0.328000X0.593000X-0.328000X0.593000X0*%
%ADD26FreePoly0,0.000000*%
%ADD27RoundRect,0.082000X0.328000X0.593000X-0.328000X0.593000X-0.328000X-0.593000X0.328000X-0.593000X0*%
%ADD28FreePoly0,180.000000*%
%ADD29RoundRect,0.237500X0.250000X0.237500X-0.250000X0.237500X-0.250000X-0.237500X0.250000X-0.237500X0*%
%ADD30RoundRect,0.200000X1.050000X-1.075000X1.050000X1.075000X-1.050000X1.075000X-1.050000X-1.075000X0*%
%ADD31RoundRect,0.200000X-1.050000X1.075000X-1.050000X-1.075000X1.050000X-1.075000X1.050000X1.075000X0*%
G04 APERTURE END LIST*
%TO.C,USB1*%
G36*
X121839250Y-23941500D02*
G01*
X119731250Y-23941500D01*
X119731250Y-26041500D01*
X121839250Y-26041500D01*
X121839250Y-23941500D01*
G37*
G36*
X121439250Y-20011500D02*
G01*
X119731250Y-20011500D01*
X119731250Y-21611500D01*
X121439250Y-21611500D01*
X121439250Y-20011500D01*
G37*
G36*
X112107250Y-23941500D02*
G01*
X109999250Y-23941500D01*
X109999250Y-26041500D01*
X112107250Y-26041500D01*
X112107250Y-23941500D01*
G37*
G36*
X112107250Y-20011500D02*
G01*
X110399250Y-20011500D01*
X110399250Y-21611500D01*
X112107250Y-21611500D01*
X112107250Y-20011500D01*
G37*
%TD*%
D10*
%TO.C,D22*%
X37616250Y-95393750D03*
X38466250Y-95393750D03*
X39316250Y-95393750D03*
X40166250Y-95393750D03*
%TD*%
%TO.C,D23*%
X58253750Y-95537500D03*
X59103750Y-95537500D03*
X59953750Y-95537500D03*
X60803750Y-95537500D03*
%TD*%
%TO.C,D24*%
X80478750Y-95537500D03*
X81328750Y-95537500D03*
X82178750Y-95537500D03*
X83028750Y-95537500D03*
%TD*%
%TO.C,D25*%
X213759950Y-95537500D03*
X214609950Y-95537500D03*
X215459950Y-95537500D03*
X216309950Y-95537500D03*
%TD*%
%TO.C,D26*%
X235259950Y-95393750D03*
X236109950Y-95393750D03*
X236959950Y-95393750D03*
X237809950Y-95393750D03*
%TD*%
%TO.C,D27*%
X256691250Y-95393750D03*
X257541250Y-95393750D03*
X258391250Y-95393750D03*
X259241250Y-95393750D03*
%TD*%
D11*
%TO.C,J1*%
X31193750Y-75025000D03*
X31193750Y-83725000D03*
D12*
X34393750Y-76875000D03*
X34393750Y-78125000D03*
X34393750Y-79375000D03*
X34393750Y-80625000D03*
X34393750Y-81875000D03*
%TD*%
D13*
%TO.C,J2*%
X270431250Y-83725000D03*
X270431250Y-75025000D03*
D14*
X267231250Y-81875000D03*
X267231250Y-80625000D03*
X267231250Y-79375000D03*
X267231250Y-78125000D03*
X267231250Y-76875000D03*
%TD*%
D15*
%TO.C,R2*%
X119974950Y-32639000D03*
X118149950Y-32639000D03*
%TD*%
D16*
%TO.C,SW1*%
X87598250Y-23495000D03*
X74671250Y-26035000D03*
%TD*%
%TO.C,SW3*%
X63785750Y-42545000D03*
X50858750Y-45085000D03*
%TD*%
%TO.C,SW4*%
X87598250Y-42545000D03*
X74671250Y-45085000D03*
%TD*%
%TO.C,SW5*%
X111410750Y-42545000D03*
X98483750Y-45085000D03*
%TD*%
%TO.C,SW6*%
X59023250Y-61595000D03*
X46096250Y-64135000D03*
%TD*%
%TO.C,SW7*%
X78073250Y-61595000D03*
X65146250Y-64135000D03*
%TD*%
%TO.C,SW8*%
X97123250Y-61595000D03*
X84196250Y-64135000D03*
%TD*%
%TO.C,SW9*%
X116173250Y-61595000D03*
X103246250Y-64135000D03*
%TD*%
%TO.C,SW11*%
X220948300Y-23495000D03*
X208021300Y-26035000D03*
%TD*%
%TO.C,SW13*%
X197135750Y-42545000D03*
X184208750Y-45085000D03*
%TD*%
%TO.C,SW14*%
X220948250Y-42545000D03*
X208021250Y-45085000D03*
%TD*%
%TO.C,SW15*%
X244760750Y-42545000D03*
X231833750Y-45085000D03*
%TD*%
%TO.C,SW16*%
X192373250Y-61595000D03*
X179446250Y-64135000D03*
%TD*%
%TO.C,SW17*%
X211423250Y-61595000D03*
X198496250Y-64135000D03*
%TD*%
%TO.C,SW18*%
X230473250Y-61595000D03*
X217546250Y-64135000D03*
%TD*%
%TO.C,SW19*%
X249523250Y-61595000D03*
X236596250Y-64135000D03*
%TD*%
%TO.C,SW21*%
X154273250Y-80645000D03*
X141346250Y-83185000D03*
%TD*%
D17*
%TO.C,USB1*%
X119144250Y-26406500D03*
X118369250Y-26406500D03*
D18*
X117669250Y-26406500D03*
X117169250Y-26406500D03*
X116669250Y-26406500D03*
X116169250Y-26406500D03*
X115669250Y-26406500D03*
X115169250Y-26406500D03*
X114669250Y-26406500D03*
X114169250Y-26406500D03*
D17*
X113469250Y-26406500D03*
X112694250Y-26406500D03*
%TD*%
D19*
%TO.C,C0*%
X157162450Y-44206250D03*
X157162450Y-46281250D03*
%TD*%
D20*
%TO.C,C8*%
X82867450Y-75300800D03*
X82867450Y-73225800D03*
%TD*%
D21*
%TO.C,D19*%
X240956250Y-71005500D03*
X240956250Y-72505500D03*
X246406250Y-71005500D03*
D22*
X246406250Y-72505500D03*
%TD*%
D20*
%TO.C,C4*%
X73310750Y-56250800D03*
X73310750Y-54175800D03*
%TD*%
D23*
%TO.C,C24*%
X80718750Y-90700000D03*
X82793750Y-90700000D03*
%TD*%
D21*
%TO.C,D17*%
X202856250Y-71005500D03*
X202856250Y-72505500D03*
X208306250Y-71005500D03*
D22*
X208306250Y-72505500D03*
%TD*%
D20*
%TO.C,C20*%
X179882800Y-92121900D03*
X179882800Y-90046900D03*
%TD*%
D23*
%TO.C,C27*%
X256931250Y-90700000D03*
X259006250Y-90700000D03*
%TD*%
%TO.C,C22*%
X37856250Y-90700000D03*
X39931250Y-90700000D03*
%TD*%
D20*
%TO.C,C21*%
X141224000Y-91842500D03*
X141224000Y-89767500D03*
%TD*%
%TO.C,C15*%
X230473300Y-56282500D03*
X230473300Y-54207500D03*
%TD*%
D21*
%TO.C,D5*%
X102843750Y-51955500D03*
X102843750Y-53455500D03*
X108293750Y-51955500D03*
D22*
X108293750Y-53455500D03*
%TD*%
D24*
%TO.C,C12*%
X268531250Y-62706300D03*
X266456250Y-62706300D03*
%TD*%
D20*
%TO.C,C7*%
X63817450Y-75173800D03*
X63817450Y-73098800D03*
%TD*%
%TO.C,C14*%
X206660800Y-56282500D03*
X206660800Y-54207500D03*
%TD*%
%TO.C,C3*%
X49434750Y-56250800D03*
X49434750Y-54175800D03*
%TD*%
D21*
%TO.C,D20*%
X183806250Y-90055500D03*
X183806250Y-91555500D03*
X189256250Y-90055500D03*
D22*
X189256250Y-91555500D03*
%TD*%
D23*
%TO.C,C26*%
X235499950Y-90700000D03*
X237574950Y-90700000D03*
%TD*%
D20*
%TO.C,C16*%
X178054000Y-75332500D03*
X178054000Y-73257500D03*
%TD*%
%TO.C,C6*%
X44767450Y-75279300D03*
X44767450Y-73204300D03*
%TD*%
%TO.C,C17*%
X197104000Y-75332500D03*
X197104000Y-73257500D03*
%TD*%
D25*
%TO.C,D2*%
X29801250Y-54425000D03*
X28301250Y-54425000D03*
X29801250Y-59875000D03*
D26*
X28301250Y-59875000D03*
%TD*%
D20*
%TO.C,C1*%
X73310750Y-37200800D03*
X73310750Y-35125800D03*
%TD*%
D21*
%TO.C,D3*%
X55218750Y-51955500D03*
X55218750Y-53455500D03*
X60668750Y-51955500D03*
D22*
X60668750Y-53455500D03*
%TD*%
D21*
%TO.C,D15*%
X236193750Y-51955500D03*
X236193750Y-53455500D03*
X241643750Y-51955500D03*
D22*
X241643750Y-53455500D03*
%TD*%
D20*
%TO.C,C18*%
X216154000Y-75332500D03*
X216154000Y-73257500D03*
%TD*%
%TO.C,C19*%
X235204000Y-75332500D03*
X235204000Y-73257500D03*
%TD*%
%TO.C,C10*%
X104063800Y-92071100D03*
X104063800Y-89996100D03*
%TD*%
D23*
%TO.C,C23*%
X58493750Y-90700000D03*
X60568750Y-90700000D03*
%TD*%
D27*
%TO.C,D12*%
X267067600Y-59712500D03*
X268567600Y-59712500D03*
X267067600Y-54262500D03*
D28*
X268567600Y-54262500D03*
%TD*%
D21*
%TO.C,D21*%
X145706250Y-90055500D03*
X145706250Y-91555500D03*
X151156250Y-90055500D03*
D22*
X151156250Y-91555500D03*
%TD*%
D21*
%TO.C,D13*%
X188568750Y-51955500D03*
X188568750Y-53455500D03*
X194018750Y-51955500D03*
D22*
X194018750Y-53455500D03*
%TD*%
D21*
%TO.C,D16*%
X183806250Y-71005500D03*
X183806250Y-72505500D03*
X189256250Y-71005500D03*
D22*
X189256250Y-72505500D03*
%TD*%
D20*
%TO.C,C13*%
X182848250Y-56250800D03*
X182848250Y-54175800D03*
%TD*%
D21*
%TO.C,D6*%
X50456250Y-71005500D03*
X50456250Y-72505500D03*
X55906250Y-71005500D03*
D22*
X55906250Y-72505500D03*
%TD*%
D29*
%TO.C,R1*%
X114196500Y-32639000D03*
X112371500Y-32639000D03*
%TD*%
D21*
%TO.C,D14*%
X212381250Y-51955500D03*
X212381250Y-53455500D03*
X217831250Y-51955500D03*
D22*
X217831250Y-53455500D03*
%TD*%
D29*
%TO.C,R3*%
X104218750Y-32543800D03*
X102393750Y-32543800D03*
%TD*%
D20*
%TO.C,C11*%
X206375050Y-37084000D03*
X206375050Y-35009000D03*
%TD*%
%TO.C,C9*%
X101917450Y-75300800D03*
X101917450Y-73225800D03*
%TD*%
D21*
%TO.C,D10*%
X107606250Y-90055500D03*
X107606250Y-91555500D03*
X113056250Y-90055500D03*
D22*
X113056250Y-91555500D03*
%TD*%
D21*
%TO.C,D8*%
X88556250Y-71005500D03*
X88556250Y-72505500D03*
X94006250Y-71005500D03*
D22*
X94006250Y-72505500D03*
%TD*%
D21*
%TO.C,D18*%
X221906250Y-71005500D03*
X221906250Y-72505500D03*
X227356250Y-71005500D03*
D22*
X227356250Y-72505500D03*
%TD*%
D23*
%TO.C,C25*%
X213824950Y-90700000D03*
X215899950Y-90700000D03*
%TD*%
D21*
%TO.C,D7*%
X69500350Y-71005500D03*
X69500350Y-72505500D03*
X74950350Y-71005500D03*
D22*
X74950350Y-72505500D03*
%TD*%
D23*
%TO.C,C2*%
X28331250Y-51593800D03*
X30406250Y-51593800D03*
%TD*%
D21*
%TO.C,D11*%
X212381300Y-32905500D03*
X212381300Y-34405500D03*
X217831300Y-32905500D03*
D22*
X217831300Y-34405500D03*
%TD*%
D21*
%TO.C,D9*%
X107606250Y-71005500D03*
X107606250Y-72505500D03*
X113056250Y-71005500D03*
D22*
X113056250Y-72505500D03*
%TD*%
D21*
%TO.C,D4*%
X79031250Y-51955500D03*
X79031250Y-53455500D03*
X84481250Y-51955500D03*
D22*
X84481250Y-53455500D03*
%TD*%
D20*
%TO.C,C5*%
X97059750Y-56250800D03*
X97059750Y-54175800D03*
%TD*%
D21*
%TO.C,D1*%
X79031250Y-32905500D03*
X79031250Y-34405500D03*
X84481250Y-32905500D03*
D22*
X84481250Y-34405500D03*
%TD*%
D16*
%TO.C,SW20*%
X179446250Y-83185000D03*
X192373250Y-80645000D03*
%TD*%
D30*
%TO.C,SW12*%
X260197600Y-64235000D03*
X257657600Y-51308000D03*
%TD*%
D16*
%TO.C,SW10*%
X116173250Y-80645000D03*
X103246250Y-83185000D03*
%TD*%
D31*
%TO.C,SW2*%
X36671250Y-50065000D03*
X39211250Y-62992000D03*
%TD*%
M02*
